<?xml version="1.0" encoding="UTF-8" standalone="no"?>
<svg
   xmlns:dc="http://purl.org/dc/elements/1.1/"
   xmlns:cc="http://creativecommons.org/ns#"
   xmlns:rdf="http://www.w3.org/1999/02/22-rdf-syntax-ns#"
   xmlns:svg="http://www.w3.org/2000/svg"
   xmlns="http://www.w3.org/2000/svg"
   width="95mm"
   height="95mm"
   viewBox="0 0 95 94.999999"
   version="1.1"
   id="svg190">
  <defs
     id="defs184" />
  <metadata
     id="metadata187">
    <rdf:RDF>
      <cc:Work
         rdf:about="">
        <dc:format>image/svg+xml</dc:format>
        <dc:type
           rdf:resource="http://purl.org/dc/dcmitype/StillImage" />
        <dc:title></dc:title>
      </cc:Work>
    </rdf:RDF>
  </metadata>
  <g
     id="layer1"
     transform="matrix(0.93492579,0,0,0.93492579,166.23558,72.320054)">
    <g
       id="g211">
      <path
         class="st0"
         d="m -86.49228,8.2583185 c -0.343958,0 -0.687916,-0.07937 -1.005416,-0.238125 -1.137709,-0.555625 -1.5875,-1.931458 -1.031875,-3.042708 2.910416,-5.90020905 4.392083,-12.276667 4.392083,-18.9177095 0,-23.65375 -19.235212,-42.888958 -42.888962,-42.888958 -23.65374,0 -42.8625,19.261667 -42.8625,42.915417 0,2.566458 0.23813,5.1329165 0.68792,7.6464585 0.21167,1.243542 -0.60854,2.407708 -1.82562,2.645833 -1.24355,0.211667 -2.40771,-0.608541 -2.64584,-1.825625 -0.50271,-2.778125 -0.74083,-5.6091665 -0.74083,-8.4402085 -0.0265,-26.19375 21.24604,-47.46625 47.38687,-47.46625 26.14084,0 47.439795,21.2725 47.439795,47.439792 0,7.3554165 -1.640416,14.39333345 -4.841875,20.9285415 -0.396875,0.79375 -1.217083,1.243542 -2.06375,1.243542 z"
         id="path61"
         style="fill:#1b75bc;stroke-width:0.26458332" />
      <g
         id="g67"
         transform="matrix(0.26458333,0,0,0.26458333,-180.63103,-61.353557)">
        <path
           class="st1"
           d="m 211.8,244.2 c 0,0 0,0 0,0 -0.1,-0.1 -0.1,-0.1 0,0 z"
           id="path63"
           style="fill:#2bb673" />
        <path
           class="st1"
           d="m 222.3,254.2 c 0.1,-10 0,-5.3 0.1,-15.4 0,-1.4 0.6,-3 1.5,-4.1 11.3,-14.3 22.7,-28.6 33.9,-42.9 0.9,-1.2 1.5,-3 1.5,-4.6 0.2,-5.9 0.2,-11.7 0,-17.6 -0.1,-2.5 0.6,-3.7 3,-4.9 7.5,-3.5 11,-11.6 8.9,-19.7 -1.9,-7.3 -9.5,-12.9 -17,-12.4 -8.3,0.5 -14.4,5.8 -16.2,14.1 -1.5,7.1 2.3,14.5 9.4,18.3 0.8,0.4 1.6,1.8 1.6,2.7 0.2,5.4 0.2,10.8 0,16.2 0,1.2 -0.5,2.6 -1.3,3.5 -4.9,6.4 -9.9,12.7 -14.9,19 -3.4,4.3 -6.7,8.5 -10.5,13.3 -0.1,-1.3 -0.2,-1.9 -0.2,-2.5 0,-26.4 0,-52.8 0,-79.2 0,-1.8 0.6,-2.6 2.2,-3.3 10.1,-4.5 13.4,-17.2 6.8,-25.7 -4.5,-5.7 -11.6,-8.2 -18.4,-6.1 -6.6,2 -10.8,6.6 -11.9,13.4 -1.2,7.6 1.9,13.9 8.5,17.6 1.9,1.1 2.3,2.2 2.3,4.2 -0.1,34.2 0,68.3 0,102.5 0,0.9 0,1.8 0,3.4 0.1,0 0.1,0.1 0,0 v 0.4 c -7.7,-4.4 -23.3,-15.9 -27.4,-38.7 -1.5,-8.4 -3.9,-15 -6.5,-20.3 5.3,1.2 11,-0.4 15.9,-5.8 10.1,-11.3 12,-24.3 9.3,-38.5 -0.6,-3.1 -3,-4.7 -6.1,-4 -2.9,0.6 -5.8,1.5 -8.6,2.7 -10.7,4.9 -18.9,12.2 -22.8,23.7 -0.7,2 -1.1,4 -1.2,6 -4.6,-3.1 -8.2,-3.7 -8.6,-3.8 -0.4,-0.1 -0.9,-0.1 -1.3,0 0.9,-8 -2.4,-16.3 -9.9,-21.2 -5.6,-3.6 -11.9,-6.1 -18.3,-8 -16,-4.8 -31.5,-1.7 -46.7,4 -0.9,0.4 -1.8,0.7 -2.6,1.1 -4.8,2.3 -5.6,5.4 -2.6,9.7 1.2,1.7 2.3,3.4 3.6,5.1 12.6,16.4 28.6,26.9 49.5,29 6.2,0.6 12.4,0.1 17.6,-3.6 3,-2.1 5.2,-4.8 6.8,-7.8 0.7,0.6 1.5,1 2.4,1.2 0.2,0 15.3,3.2 20.7,31.9 -0.8,-0.3 -1.6,-0.5 -2.4,-0.8 -14.7,-3.7 -27.1,0.7 -38.4,9.7 -2.5,1.9 -2.8,4.8 -0.7,7.2 1.9,2.3 4,4.5 6.4,6.3 9.3,7.2 19.6,11.1 31.5,9.2 5.4,-0.9 10.1,-3 12.4,-8.4 10,16 23.8,22.7 28,24.8 4.7,-2.8 10.7,-0.9 10.7,-0.9 z m -106,-90.4 c 7,2.2 14.1,4.5 21.1,6.7 1,0.3 1.9,0.7 2.9,1.1 0.1,0.3 0.2,0.6 0.3,0.9 -1.8,0.8 -3.6,2 -5.5,2.3 -8.5,1.3 -16.5,-1 -24.2,-4.3 -10.3,-4.4 -18.3,-11.8 -25.2,-21 17.4,-6.5 34,-6.7 50.3,1.7 4.6,2.4 8.2,5.6 8.2,11.7 -6.8,-2.2 -13.3,-4.2 -19.9,-6.3 -1.8,-0.6 -3.6,-1.1 -5.4,-1.7 -3.4,-1.1 -6.2,0 -6.9,2.7 -0.8,2.7 0.9,5.1 4.3,6.2 z m 58.9,3.3 c 3.1,-8.8 9.5,-14.5 18.4,-18.1 0.9,9.8 -1.7,17.9 -8.3,24.7 -2.1,2.2 -5,2.2 -7.8,0.4 -2.8,-1.9 -3.5,-3.8 -2.3,-7 z m -0.1,56.2 c -0.4,3.4 -1.7,4.8 -5.1,5.3 -9.3,1.3 -17.2,-1.7 -24.5,-7.9 8.2,-5.3 16.7,-6.8 25.7,-4.1 2.9,0.9 4.3,3.4 3.9,6.7 z M 211.2,119 c 0.1,-3.7 3.1,-6.6 6.7,-6.5 3.6,0.1 6.4,3.2 6.3,6.9 -0.1,3.5 -3,6.4 -6.5,6.5 -3.7,0 -6.6,-3.1 -6.5,-6.9 z m 43.6,37.3 c -3.6,-0.1 -6.7,-3.3 -6.6,-6.7 0.1,-3.7 3.1,-6.5 6.8,-6.5 3.6,0 6.7,3.1 6.6,6.7 0,3.4 -3.3,6.5 -6.8,6.5 z"
           id="path65"
           style="fill:#2bb673" />
      </g>
      <path
         class="st0"
         d="m -95.408738,-11.082724 c -1.243542,0 -2.275417,-1.005416 -2.275417,-2.275416 0,-16.1925 -13.176245,-29.342292 -29.342295,-29.342292 -1.24354,0 -2.27541,-1.005417 -2.27541,-2.275417 0,-1.27 1.00541,-2.275416 2.27541,-2.275416 18.67959,0 33.893129,15.213541 33.893129,33.893125 0,1.27 -1.005417,2.275416 -2.275417,2.275416 z"
         id="path95"
         style="fill:#1b75bc;stroke-width:0.26458332" />
    </g>
  </g>
</svg>
